# AST/ASF file generated using VICON BodyLanguage
# -----------------------------------------------
:version 1.10
:name VICON
:units
  mass 1.0
  length 0.45
  angle deg
:documentation
   .ast/.asf automatically generated from VICON data using
   VICON BodyBuilder and BodyLanguage model FoxedUp or BRILLIANT.MOD
:root
   order TX TY TZ RX RY RZ
   axis XYZ
   position 0 0 0  
   orientation 0 0 0 
:bonedata
  begin
     id 1 
     name lhipjoint
     direction 0.643824 -0.71708 0.266994 
     length 2.52133 
     axis 0 0 0  XYZ
  end
  begin
     id 2 
     name lfemur
     direction 0.34202 -0.939693 0  
     length 7.51824  
     axis 0 0 20  XYZ
    dof rx ry rz
    limits (-160.0 20.0)
           (-70.0 70.0)
           (-60.0 70.0)
  end
  begin
     id 3 
     name ltibia
     direction 0.34202 -0.939693 0   
     length 7.3685   
     axis 0 0 20   XYZ
    dof rx
    limits (-10.0 170.0)
  end
  begin
     id 4 
     name lfoot
     direction 0.105419 -0.289636 0.951314   
     length 2.20972   
     axis -90 7.62852e-016 20   XYZ
    dof rx rz
    limits (-45.0 90.0)
           (-70.0 20.0)
  end
  begin
     id 5 
     name ltoes
     direction 1.53549e-011 -4.21833e-011 1   
     length 1.10139   
     axis -90 7.62852e-016 20   XYZ
    dof rx
    limits (-90.0 20.0)
  end
  begin
     id 6 
     name rhipjoint
     direction -0.608823 -0.743445 0.276811   
     length 2.43192  
     axis 0 0 0  XYZ 
  end
  begin
     id 7 
     name rfemur
     direction -0.34202 -0.939693 0   
     length 7.69715   
     axis 0 0 -20   XYZ
    dof rx ry rz
    limits (-160.0 20.0)
           (-70.0 70.0)
           (-70.0 60.0)
  end
  begin
     id 8 
     name rtibia
     direction -0.34202 -0.939693 0   
     length 7.44924   
     axis 0 0 -20   XYZ
    dof rx
    limits (-10.0 170.0)
 end
 begin
     id 9 
     name rfoot
     direction -0.103614 -0.284677 0.953007   
     length 2.22623  
     axis -90 -7.62852e-016 -20   XYZ
    dof rx rz
    limits (-45.0 90.0)
           (-20.0 70.0)
  end
  begin
     id 10 
     name rtoes
     direction -1.53537e-011 -4.22026e-011 1   
     length 1.11   
     axis -90 -7.62852e-016 -20   XYZ
    dof rx
    limits (-90.0 20.0)
  end
  begin
     id 11 
     name lowerback
     direction -0.0101212 0.99662 -0.0815298   
     length 2.08277   
     axis 0 0 0   XYZ
    dof rx ry rz
    limits (-20.0 45.0)
           (-30.0 30.0)
           (-30.0 30.0)
  end
  begin
     id 12 
     name upperback
     direction 0.024314 0.999591 -0.0150645   
     length 2.08524   
     axis 0 0 0   XYZ
    dof rx ry rz
    limits (-20.0 45.0)
           (-30.0 30.0)
           (-30.0 30.0)
  end
  begin
     id 13 
     name thorax
     direction 0.0285959 0.999323 0.0231357   
     length 2.09645   
     axis 0 0 0   XYZ
    dof rx ry rz
    limits (-20.0 45.0)
           (-30.0 30.0)
           (-30.0 30.0)
  end
  begin
     id 14 
     name lowerneck
     direction -0.065512 0.979301 0.191515   
     length 1.63798   
     axis 0 0 0   XYZ
    dof rx ry rz
    limits (-20.0 45.0)
           (-30.0 30.0)
           (-30.0 30.0)
  end
  begin
     id 15 
     name upperneck
     direction 0.0498479 0.98191 -0.182667   
     length 1.68731   
     axis 0 0 0   XYZ
    dof rx ry rz
    limits (-20.0 45.0)
           (-30.0 30.0)
           (-30.0 30.0)
  end
  begin
     id 16
     name head
     direction 0.0230358 0.996257 -0.0833175  
     length 1.69785  
     axis 0 0 0   XYZ
    dof rx ry rz
    limits (-20.0 45.0)
           (-30.0 30.0)
           (-30.0 30.0)
  end
  begin
     id 17 
     name lclavicle
     direction 0.967963 0.201165 -0.150269  
     length 3.63976  
     axis 0 0 0   XYZ
    dof ry rz
    limits (-20.0 10.0)
           (0.0 20.0)
  end
  begin
     id 18 
     name lhumerus
     direction 1 -4.48954e-011 -2.92837e-028   
     length 5.32462   
     axis 180 -30 -90   XYZ
    dof rx ry rz
    limits (-60.0 90.0)
           (-90.0 90.0)
           (-90.0 90.0)
  end
  begin
     id 19
     name lradius
     direction 1 -4.48958e-011 -6.39511e-027   
     length 3.48402   
     axis 180 -30 -90   XYZ
    dof rx
    limits (-10.0 170.0)
  end
  begin
     id 20
     name lwrist
     direction 1 -4.48975e-011 -1.1413e-026   
     length 1.74201   
     axis 6.88575e-015 90 90   XYZ
    dof ry
    limits (-180.0 0.0)
 end
  begin
     id 21 
     name lhand
     direction 1 -4.48899e-011 -2.28192e-026   
     length 0.572476   
     axis 1.45643e-014 90 90   XYZ
    dof rx rz
    limits (-90.0 90.0)
           (-45.0 45.0)
  end
  begin
     id 22 
     name lfingers
     direction 1 -4.49155e-011 -4.5684e-026   
     length 0.461545   
     axis 2.91283e-014 90 90   XYZ
    dof rx
    limits (0.0 90.0)
  end
  begin
     id 23
     name lthumb
     direction 0.707107 -6.34943e-011 0.707107   
     length 0.662688   
     axis -90 45 -2.25915e-014   XYZ
    dof rx rz
    limits (-45.0 45.0)
           (-45.0 45.0)
  end
  begin
     id 24 
     name rclavicle
     direction -0.964103 0.264019 -0.0282629   
     length 3.54491  
     axis 0 0 0   XYZ 
    dof ry rz
    limits (-10.0 20.0)
           (-20.0 0.0)
  end
  begin
     id 25 
     name rhumerus
     direction -1 -4.48964e-011 -2.45032e-027  
     length 5.33589   
     axis 180 30 90   XYZ
    dof rx ry rz
    limits (-90.0 60.0)
           (-90.0 90.0)
           (-90.0 90.0)
  end
  begin
     id 26 
     name rradius
     direction -1 -4.48987e-011 -1.55093e-027   
     length 3.64134   
     axis 180 30 90   XYZ
    dof rx
    limits (-10.0 170.0)
  end
  begin
     id 27 
     name rwrist
     direction -1 -4.4897e-011 -1.14128e-026   
     length 1.82067   
     axis 6.88575e-015 -90 -90   XYZ
    dof ry
    limits (-180.0 0.0)
  end
  begin
     id 28
     name rhand
     direction -1 -4.49021e-011 -2.28301e-026   
     length 0.734811   
     axis 1.45643e-014 -90 -90   XYZ
    dof rx rz
    limits (-90.0 90.0)
           (-45.0 45.0)
  end
  begin
     id 29
     name rfingers
     direction -1 -4.48862e-011 -4.56319e-026   
     length 0.592424   
     axis 2.91283e-014 -90 -90   XYZ
    dof rx
    limits (0.0 90.0)
  end
  begin
     id 30
     name rthumb
     direction -0.707107 -6.34978e-011 0.707107   
     length 0.850605   
     axis -90 -45 2.25915e-014   XYZ
    dof rx rz
    limits (-45.0 45.0)
           (-45.0 45.0)
  end
:hierarchy
  begin
    root lhipjoint rhipjoint lowerback
    lhipjoint lfemur
    lfemur ltibia
    ltibia lfoot
    lfoot ltoes
    rhipjoint rfemur
    rfemur rtibia
    rtibia rfoot
    rfoot rtoes
    lowerback upperback
    upperback thorax
    thorax lowerneck lclavicle rclavicle
    lowerneck upperneck
    upperneck head
    lclavicle lhumerus
    lhumerus lradius
    lradius lwrist
    lwrist lhand lthumb
    lhand lfingers
    rclavicle rhumerus
    rhumerus rradius
    rradius rwrist
    rwrist rhand rthumb
    rhand rfingers
  end

#!OML:ASF F:\VICON\USERDATA\INSTALL\rory3\rory3.ASF
:FULLY-SPECIFIED
:DEGREES
168
root -0.988303 18.7464 -1.33449 1.18989 4.25413 0.818813
lowerback 6.83989 -0.842343 -3.35771
upperback -1.45463 -1.36772 1.01767
thorax -5.2526 -0.554664 3.10144
lowerneck -27.7966 -4.05083 -11.5027
upperneck 22.5293 -2.79321 6.77864
head 12.3142 -1.32897 3.98191
rclavicle -5.15908e-015 -1.39149e-014
rhumerus -29.9602 -29.487 -36.2886
rradius 40.8666
rwrist 4.72662
rhand -25.5103 -8.21011
rfingers 7.12502
rthumb 1.01872 -38.1874
lclavicle -5.15908e-015 -1.39149e-014
lhumerus -27.6906 19.2267 43.9583
lradius 42.351
lwrist 22.3376
lhand -22.5052 34.2171
lfingers 7.12502
lthumb 3.92087 64.1607
rfemur -16.1815 -1.25739 15.9546
rtibia 44.5121
rfoot -1.85666 2.35518
rtoes -11.2594
lfemur -15.1539 1.3235 -17.1224
ltibia 38.1422
lfoot 1.93426 -14.5507
ltoes -28.6666
169
root -0.994365 18.6375 -1.3415 1.25157 4.28324 0.68792
lowerback 6.94858 -0.863742 -3.15564
upperback -1.29251 -1.37904 1.03532
thorax -5.14711 -0.570707 3.00713
lowerneck -27.9511 -4.05723 -11.4729
upperneck 22.269 -2.82482 6.90977
head 12.2449 -1.31436 4.01589
rclavicle 6.1499e-016 -1.09332e-014
rhumerus -30.93 -28.9988 -38.0293
rradius 40.6083
rwrist 4.61627
rhand -25.494 -7.93032
rfingers 7.12502
rthumb 1.03445 -37.9076
lclavicle 6.1499e-016 -1.09332e-014
lhumerus -28.7969 19.3305 45.935
lradius 42.2845
lwrist 22.4502
lhand -23.2625 34.693
lfingers 7.12502
lthumb 3.18961 64.6489
rfemur -16.5373 -1.46795 16.72
rtibia 45.1541
rfoot -1.77486 2.21928
rtoes -10.5659
lfemur -15.5553 1.80666 -17.648
ltibia 38.8025
lfoot 1.85774 -14.7949
ltoes -28.5636
170
root -1.0022 18.5162 -1.35135 1.31717 4.28473 0.621397
lowerback 7.08074 -0.863243 -3.05609
upperback -1.17004 -1.37197 1.03854
thorax -5.09624 -0.572787 2.95482
lowerneck -27.9372 -4.04718 -11.4062
upperneck 22.0213 -2.84659 6.9575
head 12.1468 -1.30651 4.01244
rclavicle -2.48481e-017 -1.0138e-014
rhumerus -32.0174 -28.1338 -39.8577
rradius 40.6865
rwrist 3.93134
rhand -25.3091 -7.84864
rfingers 7.12502
rthumb 1.21305 -37.8249
lclavicle -2.48481e-017 -1.0138e-014
lhumerus -29.857 19.7143 47.7769
lradius 42.0378
lwrist 22.3181
lhand -22.9024 34.6736
lfingers 7.12502
lthumb 3.53737 64.624
rfemur -16.9253 -1.4828 17.3879
rtibia 45.7875
rfoot -1.6251 2.17166
rtoes -9.3536
lfemur -15.9398 2.27139 -18.2239
ltibia 39.4999
lfoot 1.85549 -14.8344
ltoes -28.4487
171
root -1.01071 18.3867 -1.36212 1.43654 4.26353 0.632323
lowerback 7.16442 -0.848566 -3.08765
upperback -1.11313 -1.35589 1.062
thorax -5.08405 -0.564541 2.99647
lowerneck -27.658 -4.04435 -11.4181
upperneck 21.6851 -2.89115 7.05887
head 11.9711 -1.3108 4.0351
rclavicle -5.0628e-015 1.88845e-014
rhumerus -33.1346 -27.2985 -41.6347
rradius 40.8811
rwrist 3.39441
rhand -25.2015 -7.60629
rfingers 7.12502
rthumb 1.317 -37.582
lclavicle -5.0628e-015 1.88845e-014
lhumerus -30.8539 20.4223 49.529
lradius 41.4409
lwrist 21.8514
lhand -21.7067 33.722
lfingers 7.12502
lthumb 4.69203 63.65
rfemur -17.3073 -1.37733 17.9445
rtibia 46.4238
rfoot -1.72659 2.23246
rtoes -8.72188
lfemur -16.3644 2.78527 -18.8633
ltibia 40.3259
lfoot 1.71036 -14.9208
ltoes -27.8361
172
root -1.01845 18.2466 -1.37154 1.5891 4.24297 0.491133
lowerback 7.17125 -0.849993 -2.97424
upperback -1.08901 -1.34345 1.14367
thorax -5.06402 -0.561203 3.01619
lowerneck -27.3097 -3.98639 -11.2994
upperneck 21.3133 -2.86456 6.96638
head 11.757 -1.29906 3.97272
rclavicle 6.69656e-015 3.18055e-015
rhumerus -34.1921 -26.8481 -43.3258
rradius 40.9591
rwrist 3.10469
rhand -24.9803 -7.4333
rfingers 7.12502
rthumb 1.53062 -37.4076
lclavicle 6.69656e-015 3.18055e-015
lhumerus -31.9079 20.765 51.493
lradius 41.111
lwrist 22.3033
lhand -21.5134 33.7488
lfingers 7.12502
lthumb 4.87862 63.6727
rfemur -17.6683 -1.31025 18.6564
rtibia 47.0621
rfoot -2.25144 2.53128
rtoes -4.32189
lfemur -16.8512 3.3802 -19.3397
ltibia 41.3372
lfoot 1.25376 -15.1345
ltoes -24.9572
173
root -1.029 18.1014 -1.38269 1.74329 4.21555 0.435447
lowerback 7.1195 -0.851006 -2.9373
upperback -0.970897 -1.33787 1.16585
thorax -4.9117 -0.563857 3.01454
lowerneck -27.1484 -3.93855 -11.1172
upperneck 20.9303 -2.86406 6.91051
head 11.5764 -1.28599 3.91053
rclavicle 9.33046e-015 -7.95139e-016
rhumerus -35.0364 -26.5956 -45.2713
rradius 41.0793
rwrist 2.62806
rhand -25.0227 -7.7949
rfingers 7.12502
rthumb 1.48961 -37.7694
lclavicle 9.33046e-015 -7.95139e-016
lhumerus -32.8366 21.0178 53.5578
lradius 41.0673
lwrist 23.2337
lhand -21.7002 35.0288
lfingers 7.12502
lthumb 4.69828 64.9567
rfemur -17.977 -1.20258 19.2613
rtibia 47.7715
rfoot -3.90102 2.87283
rtoes 3.46664
lfemur -17.2872 3.97511 -19.8904
ltibia 42.5392
lfoot -0.361987 -15.0144
ltoes -12.0276
174
root -1.03948 17.9631 -1.39354 1.75525 4.1614 0.430616
lowerback 7.18478 -0.831822 -2.93928
upperback -0.775763 -1.31249 1.16564
thorax -4.74641 -0.557123 3.01096
lowerneck -27.1585 -3.94476 -11.0937
upperneck 20.6804 -2.9073 7.03718
head 11.489 -1.28181 3.94118
rclavicle 2.9445e-015 -1.39149e-015
rhumerus -35.689 -26.471 -47.3243
rradius 41.1802
rwrist 1.92505
rhand -25.074 -8.0286
rfingers 7.12502
rthumb 1.44009 -38.0035
lclavicle 2.9445e-015 -1.39149e-015
lhumerus -33.5836 21.1819 55.6573
lradius 40.9674
lwrist 24.2885
lhand -21.7706 35.898
lfingers 7.12502
lthumb 4.6303 65.8274
rfemur -18.07 -1.19736 19.7568
rtibia 48.5931
rfoot -6.90404 3.16537
rtoes 5.31751
lfemur -17.5556 4.6741 -20.428
ltibia 43.8663
lfoot -3.89059 -14.0794
ltoes -11.8777
175
root -1.04988 17.8179 -1.40386 1.77659 4.13316 0.510587
lowerback 7.28836 -0.828775 -3.05581
upperback -0.660614 -1.32061 1.16473
thorax -4.68167 -0.56097 3.07725
lowerneck -26.8684 -3.91136 -11.0724
upperneck 20.3257 -2.90879 7.09864
head 11.3031 -1.27077 3.95073
rclavicle 2.64632e-015 -9.54166e-015
rhumerus -36.3828 -26.1603 -49.3456
rradius 41.2977
rwrist 0.991603
rhand -24.8358 -7.55567
rfingers 7.12502
rthumb 1.67011 -37.5289
lclavicle 2.64632e-015 -9.54166e-015
lhumerus -34.3932 21.2051 57.7756
lradius 40.8394
lwrist 25.3293
lhand -21.3686 35.8797
lfingers 7.12502
lthumb 5.01845 65.8003
rfemur -18.2082 -1.15187 20.0855
rtibia 49.5596
rfoot -10.0635 3.11734
rtoes 1.06916
lfemur -17.8446 5.19369 -20.9811
ltibia 45.2353
lfoot -8.07245 -11.6762
ltoes -17.8087
176
root -1.06241 17.6576 -1.41669 1.88784 4.14747 0.619511
lowerback 7.33871 -0.869412 -3.26258
upperback -0.554727 -1.39273 1.18234
thorax -4.58916 -0.594735 3.21957
lowerneck -26.9021 -3.81947 -10.8799
upperneck 20.1567 -2.82086 6.9983
head 11.231 -1.22517 3.89211
rclavicle -2.75441e-014 1.39149e-015
rhumerus -36.8606 -25.8537 -51.5008
rradius 41.3228
rwrist 0.0222093
rhand -24.6836 -6.94925
rfingers 7.12502
rthumb 1.81715 -36.9213
lclavicle -2.75441e-014 1.39149e-015
lhumerus -35.1005 21.5534 59.8184
lradius 40.5973
lwrist 26.2097
lhand -20.7587 35.4123
lfingers 7.12502
lthumb 5.60728 65.3181
rfemur -18.5489 -0.945001 20.3194
rtibia 50.6282
rfoot -12.743 3.33344
rtoes -2.82601
lfemur -18.2356 5.50305 -21.4913
ltibia 46.5551
lfoot -11.3167 -9.10882
ltoes -18.3612
